<svg width="115" height="114" viewBox="0 0 115 114" fill="none" xmlns="http://www.w3.org/2000/svg">
<path fill-rule="evenodd" clip-rule="evenodd" d="M85.5588 4.82188C84.4308 3.01949 82.7689 1.61363 80.8044 0.799999C78.84 -0.0136337 76.6707 -0.194558 74.5986 0.282417L59.8924 3.66043C58.3853 4.00683 56.8192 4.00683 55.3121 3.66043L40.6058 0.282417C38.5337 -0.194558 36.3645 -0.0136337 34.4001 0.799999C32.4356 1.61363 30.7737 3.01949 29.6457 4.82188L21.6301 17.6142C20.8121 18.9228 19.7079 20.027 18.3993 20.8531L5.60698 28.8688C3.8077 29.9958 2.4039 31.655 1.59045 33.6161C0.776989 35.5772 0.594223 37.7429 1.06752 39.8125L4.44553 54.5351C4.79068 56.0396 4.79068 57.6028 4.44553 59.1073L1.06752 73.8217C0.592384 75.8926 0.77423 78.0601 1.58777 80.0228C2.40132 81.9856 3.80615 83.6462 5.60698 84.7737L18.3993 92.7893C19.7079 93.6072 20.8121 94.7114 21.6382 96.0201L29.6539 108.812C31.9604 112.501 36.3608 114.325 40.6058 113.352L55.3121 109.974C56.8192 109.627 58.3853 109.627 59.8924 109.974L74.6068 113.352C76.6777 113.827 78.8452 113.645 80.8079 112.832C82.7707 112.018 84.4313 110.613 85.5588 108.812L93.5744 96.0201C94.3923 94.7114 95.4965 93.6072 96.8052 92.7893L109.606 84.7737C111.407 83.6445 112.811 81.9821 113.623 80.0178C114.435 78.0534 114.615 75.8848 114.137 73.8135L110.767 59.1073C110.421 57.6002 110.421 56.0341 110.767 54.527L114.145 39.8125C114.621 37.7425 114.44 35.5757 113.628 33.613C112.816 31.6503 111.413 29.9892 109.614 28.8606L96.8134 20.845C95.5065 20.0255 94.402 18.921 93.5826 17.6142L85.5588 4.82188ZM81.4446 38.5775C81.9505 37.6472 82.0759 36.557 81.7943 35.5362C81.5127 34.5154 80.8462 33.6437 79.9349 33.1043C79.0236 32.565 77.9387 32.4001 76.9084 32.6444C75.878 32.8887 74.9826 33.5232 74.4105 34.4143L53.0219 70.6155L40.1069 58.2485C39.7238 57.8551 39.2653 57.5429 38.7589 57.3305C38.2525 57.1181 37.7085 57.0098 37.1593 57.0122C36.6102 57.0146 36.0671 57.1276 35.5626 57.3444C35.058 57.5612 34.6023 57.8774 34.2226 58.2741C33.8429 58.6709 33.547 59.14 33.3526 59.6536C33.1581 60.1672 33.069 60.7146 33.0907 61.2634C33.1124 61.8121 33.2444 62.3508 33.4788 62.8474C33.7132 63.344 34.0452 63.7884 34.4551 64.1539L51.0916 80.0952C51.5368 80.5209 52.0725 80.8406 52.6587 81.0303C53.2448 81.2199 53.8662 81.2748 54.4765 81.1906C55.0868 81.1065 55.6702 80.8855 56.1831 80.5443C56.696 80.2031 57.1252 79.7504 57.4386 79.22L81.4446 38.5775Z" fill="#00B3FF"/>
</svg>
