<svg width="108" height="127" viewBox="0 0 108 127" fill="none" xmlns="http://www.w3.org/2000/svg">
<path d="M8.83575 25.0749V71.981C8.83575 97.5163 29.0583 118.212 54.0004 118.212C78.9426 118.212 99.1651 97.5163 99.1651 71.981V25.1001L53.7291 9.81178L8.83575 25.0749ZM53.7165 0.687988L107.633 18.822V71.981C107.633 102.299 83.6181 126.882 54.0004 126.882C24.3828 126.882 0.368164 102.299 0.368164 71.981V18.822L53.7165 0.687988ZM81.599 41.6063C81.1871 41.2279 80.7033 40.9364 80.1763 40.7491C79.6493 40.5619 79.0901 40.4826 78.5318 40.5162C77.9736 40.5498 77.4278 40.6954 76.9271 40.9445C76.4264 41.1936 75.9809 41.541 75.6174 41.9659L48.3848 73.3187L30.7934 53.8533C30.4215 53.4367 29.9696 53.0991 29.4645 52.8606C28.9594 52.6222 28.4115 52.4878 27.8535 52.4654C27.2954 52.443 26.7385 52.5332 26.216 52.7304C25.6935 52.9277 25.2159 53.228 24.8119 53.6136C23.9846 54.4043 23.4975 55.486 23.454 56.6296C23.4104 57.7732 23.8137 58.8889 24.5784 59.7403L45.3372 82.7075C45.7326 83.152 46.2186 83.5066 46.7626 83.7475C47.3065 83.9884 47.8958 84.1099 48.4907 84.104C49.0855 84.098 49.6722 83.9646 50.2112 83.7129C50.7502 83.4611 51.229 83.0968 51.6154 82.6444L81.946 47.7266C82.6945 46.8613 83.0769 45.7385 83.0121 44.5962C82.9473 43.4538 82.4405 42.3815 81.599 41.6063Z" fill="#00FF75"/>
</svg>
